<svg width="40" height="40" fill="none" xmlns="http://www.w3.org/2000/svg"><g clip-path="url(#clip0_1_9)"><path d="M9.135 3.32a1.695 1.695 0 00-2.538-.157L4.012 5.75C2.805 6.96 2.36 8.673 2.887 10.175a43.92 43.92 0 0010.42 16.52 43.921 43.921 0 0016.52 10.42c1.503.527 3.215.082 4.425-1.125l2.585-2.585a1.696 1.696 0 00-.157-2.538l-5.767-4.485a1.695 1.695 0 00-1.45-.305l-5.476 1.368a4.362 4.362 0 01-4.142-1.148l-6.14-6.142a4.363 4.363 0 01-1.15-4.143l1.37-5.475a1.696 1.696 0 00-.305-1.45L9.135 3.32zM4.71 1.278a4.363 4.363 0 016.53.407l4.485 5.765a4.36 4.36 0 01.787 3.735l-1.367 5.475a1.696 1.696 0 00.445 1.607l6.143 6.143a1.694 1.694 0 001.61.445l5.472-1.367a4.361 4.361 0 013.735.787l5.765 4.485a4.361 4.361 0 01.407 6.527l-2.584 2.586c-1.85 1.85-4.615 2.662-7.193 1.755a46.584 46.584 0 01-17.525-11.05A46.585 46.585 0 01.37 11.055C-.535 8.48.277 5.713 2.127 3.863l2.585-2.586H4.71z" fill="#000"/></g><defs><clipPath id="clip0_1_9"><path fill="#fff" d="M0 0h40v40H0z"/></clipPath></defs></svg>